<svg xmlns="http://www.w3.org/2000/svg" viewBox="0 0 1120 720" role="img" aria-labelledby="title desc">
  <title id="title">Home with rooftop solar panels and battery storage</title>
  <desc id="desc">A clean residential home with rooftop solar panels, a wall-mounted battery, and drought-tolerant landscaping.</desc>
  <defs>
    <linearGradient id="sky" x1="0" x2="0" y1="0" y2="1">
      <stop offset="0" stop-color="#dff5ff"/>
      <stop offset="1" stop-color="#f7fbf8"/>
    </linearGradient>
    <linearGradient id="panel" x1="0" x2="1">
      <stop offset="0" stop-color="#17365d"/>
      <stop offset="1" stop-color="#0f766e"/>
    </linearGradient>
    <filter id="softShadow" x="-20%" y="-20%" width="140%" height="140%">
      <feDropShadow dx="0" dy="18" stdDeviation="16" flood-color="#102033" flood-opacity=".18"/>
    </filter>
  </defs>
  <rect width="1120" height="720" fill="url(#sky)"/>
  <circle cx="910" cy="118" r="58" fill="#f5b841" opacity=".9"/>
  <path d="M0 602 C180 550 310 590 470 556 C650 518 790 548 1120 492 L1120 720 L0 720 Z" fill="#dfeee7"/>
  <path d="M0 640 C250 594 430 648 616 604 C800 560 980 590 1120 548 L1120 720 L0 720 Z" fill="#c9e5d7"/>
  <g filter="url(#softShadow)">
    <path d="M190 362 L558 170 L930 362 Z" fill="#26394f"/>
    <path d="M250 354 H868 V590 H250 Z" fill="#f9fbf8"/>
    <path d="M250 354 H868 V394 H250 Z" fill="#d8e2e6"/>
    <path d="M558 170 L930 362 H848 L558 214 L270 362 H190 Z" fill="#16263a"/>
    <g transform="translate(398 245) skewX(-27)">
      <rect x="0" y="0" width="360" height="122" rx="8" fill="url(#panel)"/>
      <g stroke="#dff6ff" stroke-width="4" opacity=".78">
        <path d="M72 0 V122"/>
        <path d="M144 0 V122"/>
        <path d="M216 0 V122"/>
        <path d="M288 0 V122"/>
        <path d="M0 41 H360"/>
        <path d="M0 82 H360"/>
      </g>
    </g>
    <rect x="310" y="425" width="112" height="165" rx="6" fill="#c58d50"/>
    <rect x="462" y="438" width="138" height="92" rx="6" fill="#183149"/>
    <rect x="486" y="458" width="90" height="52" rx="4" fill="#a9d8ef"/>
    <rect x="638" y="438" width="138" height="92" rx="6" fill="#183149"/>
    <rect x="662" y="458" width="90" height="52" rx="4" fill="#a9d8ef"/>
    <rect x="812" y="423" width="72" height="156" rx="14" fill="#ffffff" stroke="#c7d8dc" stroke-width="4"/>
    <rect x="828" y="447" width="40" height="11" rx="5.5" fill="#0f766e"/>
    <rect x="828" y="468" width="40" height="74" rx="8" fill="#e9f0ff"/>
    <path d="M884 458 H920 V552 H884" fill="none" stroke="#8aa1ad" stroke-width="5"/>
    <circle cx="922" cy="482" r="8" fill="#8aa1ad"/>
    <circle cx="922" cy="528" r="8" fill="#8aa1ad"/>
  </g>
  <g fill="#6aa06f">
    <ellipse cx="188" cy="594" rx="66" ry="24"/>
    <ellipse cx="936" cy="598" rx="78" ry="28"/>
    <ellipse cx="740" cy="616" rx="54" ry="20"/>
  </g>
  <g stroke="#6aa06f" stroke-width="8" stroke-linecap="round">
    <path d="M160 588 C146 552 154 526 174 500"/>
    <path d="M198 588 C218 554 216 526 198 498"/>
    <path d="M930 590 C910 554 918 526 940 502"/>
    <path d="M970 590 C990 552 988 520 966 494"/>
  </g>
</svg>
